<svg width="98" height="98" viewBox="0 0 98 98" fill="none" xmlns="http://www.w3.org/2000/svg">
<path opacity="0.08" d="M82 49C82 67.2254 67.2254 82 49 82C30.7746 82 16 67.2254 16 49C16 30.7746 30.7746 16 49 16C67.2254 16 82 30.7746 82 49Z" fill="#471169"/>
<mask id="mask0_4120_5880" style="mask-type:alpha" maskUnits="userSpaceOnUse" x="21" y="7" width="69" height="69">
<path d="M22.9593 51.4142C21.3972 49.8521 21.3972 47.3195 22.9593 45.7574L59.7288 8.98783C61.2909 7.42573 63.8236 7.42573 65.3857 8.98783L88.0131 31.6152C89.5752 33.1773 89.5752 35.71 88.0131 37.2721L51.2436 74.0417C49.6815 75.6038 47.1488 75.6038 45.5867 74.0417L22.9593 51.4142Z" fill="#D9D9D9"/>
</mask>
<g mask="url(#mask0_4120_5880)">
<path opacity="0.25" d="M22.9593 51.4142C21.3972 49.8521 21.3972 47.3195 22.9593 45.7574L59.7288 8.98783C61.2909 7.42573 63.8236 7.42573 65.3857 8.98783L88.0131 31.6152C89.5752 33.1773 89.5752 35.71 88.0131 37.2721L51.2436 74.0417C49.6815 75.6038 47.1488 75.6038 45.5867 74.0417L22.9593 51.4142Z" fill="#471169"/>
<path opacity="0.25" fill-rule="evenodd" clip-rule="evenodd" d="M61.143 10.402L24.3735 47.1716C23.5925 47.9526 23.5925 49.219 24.3735 50L47.0009 72.6274C47.782 73.4085 49.0483 73.4085 49.8293 72.6274L86.5989 35.8579C87.3799 35.0768 87.3799 33.8105 86.5989 33.0295L63.9715 10.402C63.1904 9.62099 61.9241 9.621 61.143 10.402ZM22.9593 45.7574C21.3972 47.3195 21.3972 49.8521 22.9593 51.4142L45.5867 74.0417C47.1488 75.6038 49.6815 75.6038 51.2436 74.0417L88.0131 37.2721C89.5752 35.71 89.5752 33.1773 88.0131 31.6152L65.3857 8.98783C63.8236 7.42573 61.2909 7.42573 59.7288 8.98783L22.9593 45.7574Z" fill="#471169"/>
<path fill-rule="evenodd" clip-rule="evenodd" d="M61.143 10.402L24.3735 47.1716C23.5925 47.9526 23.5925 49.219 24.3735 50L47.0009 72.6274C47.782 73.4085 49.0483 73.4085 49.8293 72.6274L86.5989 35.8579C87.3799 35.0768 87.3799 33.8105 86.5989 33.0295L63.9715 10.402C63.1904 9.62099 61.9241 9.621 61.143 10.402ZM22.9593 45.7574C21.3972 47.3195 21.3972 49.8521 22.9593 51.4142L45.5867 74.0417C47.1488 75.6038 49.6815 75.6038 51.2436 74.0417L88.0131 37.2721C89.5752 35.71 89.5752 33.1773 88.0131 31.6152L65.3857 8.98783C63.8236 7.42573 61.2909 7.42573 59.7288 8.98783L22.9593 45.7574Z" fill="#471169"/>
<path opacity="0.15" d="M90.8418 34.4437L48.4154 76.8701L48.9752 43.8404L53.728 43.0464C55.4143 42.7647 56.7351 41.4424 57.015 39.7559L57.8036 35.0037L90.8418 34.4437Z" fill="#471169"/>
<path fill-rule="evenodd" clip-rule="evenodd" d="M93.2979 33.402L47.3737 79.3261L47.9895 42.9912L53.5633 42.0601C54.828 41.8488 55.8187 40.8571 56.0286 39.5922L56.9536 34.018L93.2979 33.402ZM88.3859 35.4855L58.6538 35.9895L58.0016 39.9196C57.6517 42.0278 56.0007 43.6806 53.8929 44.0327L49.961 44.6896L49.4572 74.4142L88.3859 35.4855Z" fill="#471169"/>
<path opacity="0.5" d="M53.7185 43.0422L20.1309 48.5858L62.5573 6.1594L57.0137 39.747C56.7346 41.4379 55.4094 42.7631 53.7185 43.0422Z" fill="#471169"/>
<path opacity="0.5" fill-rule="evenodd" clip-rule="evenodd" d="M17.2236 50.0792L64.0511 3.25173L58.0007 39.9098C57.6519 42.0235 55.9954 43.68 53.8817 44.0289L17.2236 50.0792ZM23.0389 47.0924L53.556 42.0555C54.8242 41.8462 55.8181 40.8523 56.0274 39.5841L61.0642 9.06702L23.0389 47.0924Z" fill="#471169"/>
<path fill-rule="evenodd" clip-rule="evenodd" d="M17.2236 50.0792L64.0511 3.25173L58.0007 39.9098C57.6519 42.0234 55.9954 43.68 53.8817 44.0289L17.2236 50.0792ZM23.0389 47.0924L53.556 42.0555C54.8242 41.8462 55.8181 40.8523 56.0274 39.5841L61.0642 9.06702L23.0389 47.0924Z" fill="#471169"/>
</g>
<path d="M18.7169 69.799C18.3263 69.4085 18.3263 68.7753 18.7169 68.3848L25.7879 61.3137C26.1785 60.9232 26.8116 60.9232 27.2022 61.3137C27.5927 61.7043 27.5927 62.3374 27.2022 62.728L20.1311 69.799C19.7406 70.1895 19.1074 70.1895 18.7169 69.799Z" fill="#471169"/>
<path d="M27.2022 78.2843C26.8117 77.8937 26.8117 77.2606 27.2022 76.87L34.2733 69.799C34.6638 69.4084 35.297 69.4084 35.6875 69.799C36.078 70.1895 36.078 70.8227 35.6875 71.2132L28.6164 78.2843C28.2259 78.6748 27.5927 78.6748 27.2022 78.2843Z" fill="#471169"/>
<path d="M17.3018 79.6986C16.9113 79.308 16.9113 78.6749 17.3018 78.2843L30.0298 65.5564C30.4203 65.1659 31.0534 65.1659 31.444 65.5564C31.8345 65.9469 31.8345 66.5801 31.444 66.9706L18.716 79.6986C18.3255 80.0891 17.6924 80.0891 17.3018 79.6986Z" fill="#471169"/>
<path d="M15.5393 11.3723C15.6459 10.8759 16.3541 10.8759 16.4607 11.3723L17.1334 14.5048C17.1723 14.6861 17.3139 14.8277 17.4952 14.8666L20.6277 15.5393C21.1241 15.6459 21.1241 16.3541 20.6277 16.4607L17.4952 17.1334C17.3139 17.1723 17.1723 17.3139 17.1334 17.4952L16.4607 20.6277C16.3541 21.1241 15.6459 21.1241 15.5393 20.6277L14.8666 17.4952C14.8277 17.3139 14.6861 17.1723 14.5048 17.1334L11.3723 16.4607C10.8759 16.3541 10.8759 15.6459 11.3723 15.5393L14.5048 14.8666C14.6861 14.8277 14.8277 14.6861 14.8666 14.5048L15.5393 11.3723Z" fill="#471169"/>
<path opacity="0.08" d="M85 89.5C85 88.1193 86.1193 87 87.5 87C88.8807 87 90 88.1193 90 89.5C90 90.8807 88.8807 92 87.5 92C86.1193 92 85 90.8807 85 89.5Z" fill="#471169"/>
<path opacity="0.08" d="M73 81.5C73 78.4624 75.4624 76 78.5 76C81.5376 76 84 78.4624 84 81.5C84 84.5376 81.5376 87 78.5 87C75.4624 87 73 84.5376 73 81.5Z" fill="#471169"/>
<path d="M28.9885 87.4133C29.1069 86.8622 29.8931 86.8622 30.0115 87.4133L30.3957 89.2026C30.4389 89.4039 30.5961 89.5611 30.7974 89.6043L32.5867 89.9885C33.1378 90.1069 33.1378 90.8931 32.5867 91.0115L30.7974 91.3957C30.5961 91.4389 30.4389 91.5961 30.3957 91.7974L30.0115 93.5867C29.8931 94.1378 29.1069 94.1378 28.9885 93.5867L28.6043 91.7974C28.5611 91.5961 28.4039 91.4389 28.2026 91.3957L26.4133 91.0115C25.8622 90.8931 25.8622 90.1069 26.4133 89.9885L28.2026 89.6043C28.4039 89.5611 28.5611 89.4039 28.6043 89.2026L28.9885 87.4133Z" fill="#471169"/>
<path opacity="0.08" d="M3 65C3 62.7909 4.79086 61 7 61C9.20914 61 11 62.7909 11 65C11 67.2091 9.20914 69 7 69C4.79086 69 3 67.2091 3 65Z" fill="#471169"/>
<path d="M86.9885 9.41331C87.1069 8.86223 87.8931 8.86223 88.0115 9.41331L88.3957 11.2026C88.4389 11.4039 88.5961 11.5611 88.7974 11.6043L90.5867 11.9885C91.1378 12.1069 91.1378 12.8931 90.5867 13.0115L88.7974 13.3957C88.5961 13.4389 88.4389 13.5961 88.3957 13.7974L88.0115 15.5867C87.8931 16.1378 87.1069 16.1378 86.9885 15.5867L86.6043 13.7974C86.5611 13.5961 86.4039 13.4389 86.2026 13.3957L84.4133 13.0115C83.8622 12.8931 83.8622 12.1069 84.4133 11.9885L86.2026 11.6043C86.4039 11.5611 86.5611 11.4039 86.6043 11.2026L86.9885 9.41331Z" fill="#471169"/>
<path opacity="0.08" d="M33 9C33 6.79086 34.7909 5 37 5C39.2091 5 41 6.79086 41 9C41 11.2091 39.2091 13 37 13C34.7909 13 33 11.2091 33 9Z" fill="#471169"/>
<path opacity="0.08" d="M46 90C46 88.3431 47.3431 87 49 87C50.6569 87 52 88.3431 52 90C52 91.6569 50.6569 93 49 93C47.3431 93 46 91.6569 46 90Z" fill="#471169"/>
</svg>
